Coordinates
version=1
nRows=8
nColumns=34
inDegrees=yes

Units are S.I. units (second, meters, Newtons, ...)
If the header above contains a line with 'inDegrees', this indicates whether rotational values are in degrees (yes) or radians (no).

endheader
time	pelvis_tilt	pelvis_list	pelvis_rotation	pelvis_tx	pelvis_ty	pelvis_tz	hip_flexion_r	hip_adduction_r	hip_rotation_r	knee_angle_r	ankle_angle_r	subtalar_angle_r	mtp_angle_r	hip_flexion_l	hip_adduction_l	hip_rotation_l	knee_angle_l	ankle_angle_l	subtalar_angle_l	mtp_angle_l	lumbar_extension	lumbar_bending	lumbar_rotation	arm_flex_r	arm_add_r	arm_rot_r	elbow_flex_r	pro_sup_r	arm_flex_l	arm_add_l	arm_rot_l	elbow_flex_l	pro_sup_l
      6.41666670	    -15.50194013	      3.49685302	     -2.98692274	      0.43187600	      0.94034040	     -0.07896799	     35.92457679	     -6.38622909	     -4.26102377	     33.63804997	     15.25549517	     -7.10123688	      0.00000000	     34.36028545	     -4.87242539	     -5.93049705	     33.38020418	     13.22358741	     -1.11799149	      0.00000000	      2.58565635	     -1.75218293	      3.35181397	     80.85607191	      7.37286167	     60.74304012	    132.85903841	    100.81699608	     95.15464518	     10.54589724	     73.69246988	    114.67615024	     78.55355855
      6.43333330	    -14.56964837	      3.33650211	     -3.19296094	      0.43928967	      0.94590801	     -0.07915541	     32.46918058	     -5.86292491	     -4.15438031	     29.80746454	     14.03299039	     -7.47538449	      0.00000000	     30.79275584	     -4.58358582	     -5.75618034	     29.25315686	     11.71436197	     -1.83346301	      0.00000000	      3.26150484	     -1.65595991	      3.13577212	     78.38788521	      7.42757237	     60.30272780	    132.74128326	    101.10152724	     93.17285229	     10.46121921	     73.75942406	    114.73640370	     78.55452511
      6.45000000	    -13.61637797	      3.22395660	     -3.25835351	      0.44649248	      0.95420477	     -0.07854792	     29.02162587	     -5.48446513	     -4.13035874	     26.06804340	     12.73845507	     -7.95542020	      0.00000000	     27.30691649	     -4.18869908	     -5.45861393	     25.21214421	     10.20208584	     -2.35836883	      0.00000000	      3.88729823	     -1.53931814	      3.20571175	     75.83368977	      7.21657342	     59.77485865	    132.86182442	    101.34863368	     91.02748025	     10.32298450	     73.82179284	    114.62815811	     78.49346842
      6.46666670	    -12.68530343	      3.08041250	     -3.23750172	      0.45165267	      0.96154726	     -0.07837496	     25.68493105	     -5.08151221	     -4.00739425	     22.32202239	     11.53482627	     -8.38649551	      0.00000000	     24.07730637	     -3.83164689	     -5.06106532	     21.50385391	      8.80505662	     -2.80870442	      0.00000000	      4.28327627	     -1.35665310	      3.16605481	     73.22862544	      6.74327438	     59.17748327	    132.54257416	    101.48831164	     88.98107313	     10.06922671	     74.07076618	    113.93273186	     78.34905516
      6.48333330	    -11.68385078	      2.96187627	     -3.24486961	      0.45717805	      0.96524619	     -0.07822868	     22.51217119	     -4.72203375	     -3.74466009	     18.98774637	     10.56945647	     -8.84198838	      0.00000000	     20.97690417	     -3.53549427	     -4.61482264	     18.16418884	      7.56708517	     -3.39998193	      0.00000000	      4.51257178	     -1.24842751	      3.56038016	     70.93163290	      6.38565821	     59.32331272	    132.48520312	    101.60586973	     86.95549383	     10.19059567	     74.53975680	    113.66180112	     78.13951191
      6.50000000	    -10.63625024	      2.80115874	     -3.25815842	      0.46431070	      0.97176929	     -0.07858334	     19.20742947	     -4.36010769	     -3.51456016	     15.60462940	      9.45253339	     -8.94326651	      0.00000000	     17.82050515	     -3.27868996	     -3.99698416	     14.88746005	      6.52524420	     -3.50375178	      0.00000000	      4.73108604	     -1.03616421	      3.67247188	     68.61841342	      5.90539677	     59.97941016	    132.62626620	    101.70556789	     84.69133946	     10.08271195	     75.08154664	    113.28767228	     77.90098489
      6.51666670	     -9.60562426	      2.63665236	     -3.19019121	      0.46979739	      0.97144142	     -0.07847417	     16.25698822	     -4.06200917	     -3.24035436	     12.86165587	      8.66825928	     -9.04981448	      0.00000000	     14.99918359	     -3.09075148	     -3.60092226	     12.17648059	      5.82851594	     -3.78514956	      0.00000000	      4.89167268	     -0.79198155	      3.97350769	     66.78865302	      5.49538961	     61.00760442	    133.37012223	    101.81019211	     82.81860436	     10.33390254	     75.50601057	    113.55302399	     77.71879816
      6.53333330	     -8.57027283	      2.49745275	     -3.19514877	      0.47503384	      0.97217452	     -0.07855710	     13.53950343	     -3.83127110	     -2.96687287	     10.51743348	      8.18161170	     -9.19210613	      0.00000000	     12.31307674	     -2.92384042	     -3.12083769	      9.79072010	      5.60551585	     -3.88614839	      0.00000000	      5.03437894	     -0.59480064	      3.89303823	     65.29507345	      5.58187288	     62.04380641	    132.85768636	    101.89813119	     81.29032986	     10.14864434	     75.89340723	    113.44522868	     77.53630835
